<svg width="21" height="18" viewBox="0 0 21 18" fill="none" xmlns="http://www.w3.org/2000/svg">
<path d="M20.9577 0.566484C20.9407 0.488946 20.9035 0.417281 20.8499 0.358743C20.7963 0.300205 20.7281 0.256872 20.6524 0.23313C20.3765 0.17849 20.091 0.198732 19.8255 0.291752C19.8255 0.291752 1.42634 6.90545 0.375536 7.63778C0.149801 7.79527 0.0736808 7.88714 0.0360582 7.99476C-0.14593 8.51972 0.420159 8.74546 0.420159 8.74546L5.16236 10.2906C5.24254 10.305 5.32499 10.3002 5.40297 10.2766C6.4809 9.59503 16.2523 3.4223 16.8201 3.21494C16.9076 3.18869 16.975 3.21494 16.9575 3.28056C16.7317 4.07238 8.28766 11.5733 8.24128 11.6188C8.2187 11.6373 8.2011 11.6611 8.19009 11.6882C8.17909 11.7152 8.17503 11.7446 8.17829 11.7736L7.73557 16.4038C7.73557 16.4038 7.55008 17.8449 8.99111 16.4038C10.013 15.381 10.9939 14.5341 11.4838 14.122C13.1147 15.248 14.869 16.4931 15.6258 17.1449C15.7531 17.2681 15.904 17.3644 16.0693 17.428C16.2347 17.4916 16.4112 17.5212 16.5883 17.515C16.8063 17.4884 17.0111 17.3961 17.1753 17.2503C17.3396 17.1044 17.4556 16.9121 17.5078 16.6987C17.5078 16.6987 20.8589 3.20444 20.9708 1.39681C20.9822 1.22182 20.9971 1.10632 20.9988 0.984707C21.0043 0.844076 20.9905 0.703361 20.9577 0.566484Z" fill="white"/>
</svg>
