<svg width="20" height="20" viewBox="0 0 20 20" fill="none" xmlns="http://www.w3.org/2000/svg">
<path fill-rule="evenodd" clip-rule="evenodd" d="M10.0413 0.203125C4.51857 0.203125 0 4.72169 0 10.2444C0 14.6793 2.84503 18.4448 6.86153 19.7836C7.3636 19.8673 7.53095 19.5326 7.53095 19.2815C7.53095 19.0305 7.53095 18.4448 7.53095 17.608C4.7696 18.1937 4.18386 16.2692 4.18386 16.2692C3.76547 15.0977 3.09606 14.763 3.09606 14.763C2.09193 14.1772 3.09606 14.1772 3.09606 14.1772C4.10018 14.2609 4.60225 15.1813 4.60225 15.1813C5.5227 16.6875 6.94521 16.2692 7.53095 16.0181C7.61463 15.3487 7.86566 14.9303 8.20037 14.6793C5.94108 14.4283 3.59812 13.5915 3.59812 9.74233C3.59812 8.65452 4.01651 7.73407 4.60225 7.06466C4.60225 6.72995 4.18386 5.72582 4.7696 4.38699C4.7696 4.38699 5.60637 4.13595 7.53095 5.39111C8.36772 5.14008 9.20449 5.0564 10.0413 5.0564C10.878 5.0564 11.7148 5.14008 12.5516 5.39111C14.4762 4.05228 15.3129 4.38699 15.3129 4.38699C15.8987 5.8095 15.4803 6.81362 15.3966 7.06466C16.066 7.73407 16.4007 8.65452 16.4007 9.74233C16.4007 13.5915 14.0578 14.4283 11.7985 14.6793C12.1332 15.014 12.4679 15.5997 12.4679 16.5202C12.4679 17.859 12.4679 18.9468 12.4679 19.2815C12.4679 19.5326 12.6353 19.8673 13.1373 19.7836C17.1538 18.4448 19.9989 14.6793 19.9989 10.2444C20.0825 4.72169 15.564 0.203125 10.0413 0.203125Z" fill="white"/>
</svg>
